<svg width="24" height="20" viewBox="0 0 24 20" fill="none" xmlns="http://www.w3.org/2000/svg">
<path d="M24 2.95905C23.1174 3.32905 22.1693 3.57905 21.1726 3.69205C22.201 3.10984 22.9704 2.19352 23.3373 1.11405C22.371 1.65704 21.3135 2.03924 20.2107 2.24405C19.4691 1.49491 18.4868 0.998376 17.4164 0.831524C16.3459 0.664671 15.2472 0.836841 14.2907 1.3213C13.3343 1.80576 12.5737 2.57541 12.127 3.51075C11.6803 4.4461 11.5725 5.4948 11.8203 6.49405C9.86244 6.40105 7.94711 5.9196 6.19863 5.08095C4.45016 4.24231 2.90761 3.06521 1.6711 1.62605C1.2483 2.31605 1.0052 3.11605 1.0052 3.96805C1.00473 4.73504 1.20437 5.49029 1.58641 6.16678C1.96846 6.84327 2.52109 7.42009 3.19528 7.84605C2.4134 7.82251 1.64877 7.62263 0.965031 7.26305V7.32305C0.964952 8.39879 1.35827 9.44143 2.07823 10.274C2.7982 11.1067 3.80048 11.678 4.915 11.8911C4.18968 12.0768 3.42923 12.1041 2.69109 11.9711C3.00555 12.8967 3.61807 13.7061 4.44291 14.286C5.26776 14.8659 6.26363 15.1872 7.29111 15.2051C5.5469 16.5005 3.39282 17.2031 1.17537 17.2C0.782575 17.2001 0.39011 17.1784 0 17.135C2.25083 18.5042 4.87097 19.2309 7.5469 19.228C16.6053 19.228 21.5573 12.13 21.5573 5.97405C21.5573 5.77405 21.552 5.57205 21.5425 5.37205C22.5057 4.71302 23.3372 3.89695 23.9979 2.96205L24 2.95905Z" fill="white"/>
</svg>
