<svg width="413" height="505" viewBox="0 0 413 505" fill="none" xmlns="http://www.w3.org/2000/svg">
<g opacity="0.3">
<path fill-rule="evenodd" clip-rule="evenodd" d="M3.88624 0.00390625C1.73982 0.00390625 0 1.63841 0 3.65491C0 5.67091 1.73982 7.30591 3.88624 7.30591C6.03267 7.30591 7.77249 5.67091 7.77249 3.65491C7.77249 1.63841 6.03267 0.00390625 3.88624 0.00390625" fill="#43B97F"/>
<path fill-rule="evenodd" clip-rule="evenodd" d="M3.88624 31.6875C1.73982 31.6875 0 33.322 0 35.3385C0 37.3545 1.73982 38.9895 3.88624 38.9895C6.03267 38.9895 7.77249 37.3545 7.77249 35.3385C7.77249 33.322 6.03267 31.6875 3.88624 31.6875" fill="#43B97F"/>
<path fill-rule="evenodd" clip-rule="evenodd" d="M3.88624 63.3711C1.73982 63.3711 0 65.0056 0 67.0221C0 69.0386 1.73982 70.6731 3.88624 70.6731C6.03267 70.6731 7.77249 69.0386 7.77249 67.0221C7.77249 65.0056 6.03267 63.3711 3.88624 63.3711" fill="#43B97F"/>
<path fill-rule="evenodd" clip-rule="evenodd" d="M3.88624 95.0547C1.73982 95.0547 0 96.6897 0 98.7057C0 100.722 1.73982 102.357 3.88624 102.357C6.03267 102.357 7.77249 100.722 7.77249 98.7057C7.77249 96.6897 6.03267 95.0547 3.88624 95.0547" fill="#43B97F"/>
<path fill-rule="evenodd" clip-rule="evenodd" d="M3.88624 126.738C1.73982 126.738 0 128.373 0 130.389C0 132.405 1.73982 134.04 3.88624 134.04C6.03267 134.04 7.77249 132.405 7.77249 130.389C7.77249 128.373 6.03267 126.738 3.88624 126.738" fill="#43B97F"/>
<path fill-rule="evenodd" clip-rule="evenodd" d="M3.88624 158.418C1.73982 158.418 0 160.053 0 162.069C0 164.085 1.73982 165.72 3.88624 165.72C6.03267 165.72 7.77249 164.085 7.77249 162.069C7.77249 160.053 6.03267 158.418 3.88624 158.418" fill="#43B97F"/>
<path fill-rule="evenodd" clip-rule="evenodd" d="M3.88624 190.102C1.73982 190.102 0 191.737 0 193.753C0 195.769 1.73982 197.404 3.88624 197.404C6.03267 197.404 7.77249 195.769 7.77249 193.753C7.77249 191.737 6.03267 190.102 3.88624 190.102" fill="#43B97F"/>
<path fill-rule="evenodd" clip-rule="evenodd" d="M3.88624 221.785C1.73982 221.785 0 223.42 0 225.436C0 227.453 1.73982 229.087 3.88624 229.087C6.03267 229.087 7.77249 227.453 7.77249 225.436C7.77249 223.42 6.03267 221.785 3.88624 221.785" fill="#43B97F"/>
<path fill-rule="evenodd" clip-rule="evenodd" d="M3.88624 253.469C1.73982 253.469 0 255.104 0 257.12C0 259.136 1.73982 260.771 3.88624 260.771C6.03267 260.771 7.77249 259.136 7.77249 257.12C7.77249 255.104 6.03267 253.469 3.88624 253.469" fill="#43B97F"/>
<path fill-rule="evenodd" clip-rule="evenodd" d="M3.88624 285.152C1.73982 285.152 0 286.787 0 288.804C0 290.82 1.73982 292.454 3.88624 292.454C6.03267 292.454 7.77249 290.82 7.77249 288.804C7.77249 286.787 6.03267 285.152 3.88624 285.152" fill="#43B97F"/>
<path fill-rule="evenodd" clip-rule="evenodd" d="M3.88624 316.836C1.73982 316.836 0 318.47 0 320.487C0 322.503 1.73982 324.138 3.88624 324.138C6.03267 324.138 7.77249 322.503 7.77249 320.487C7.77249 318.47 6.03267 316.836 3.88624 316.836" fill="#43B97F"/>
<path fill-rule="evenodd" clip-rule="evenodd" d="M3.88624 348.52C1.73982 348.52 0 350.154 0 352.171C0 354.187 1.73982 355.822 3.88624 355.822C6.03267 355.822 7.77249 354.187 7.77249 352.171C7.77249 350.154 6.03267 348.52 3.88624 348.52" fill="#43B97F"/>
<path fill-rule="evenodd" clip-rule="evenodd" d="M3.88624 380.203C1.73982 380.203 0 381.838 0 383.854C0 385.871 1.73982 387.505 3.88624 387.505C6.03267 387.505 7.77249 385.871 7.77249 383.854C7.77249 381.838 6.03267 380.203 3.88624 380.203" fill="#43B97F"/>
<path fill-rule="evenodd" clip-rule="evenodd" d="M3.88624 411.887C1.73982 411.887 0 413.522 0 415.538C0 417.554 1.73982 419.189 3.88624 419.189C6.03267 419.189 7.77249 417.554 7.77249 415.538C7.77249 413.522 6.03267 411.887 3.88624 411.887" fill="#43B97F"/>
<path fill-rule="evenodd" clip-rule="evenodd" d="M3.88624 443.566C1.73982 443.566 0 445.201 0 447.217C0 449.234 1.73982 450.868 3.88624 450.868C6.03267 450.868 7.77249 449.234 7.77249 447.217C7.77249 445.201 6.03267 443.566 3.88624 443.566" fill="#43B97F"/>
<path fill-rule="evenodd" clip-rule="evenodd" d="M3.88624 470.25C1.73982 470.25 0 471.885 0 473.901C0 475.918 1.73982 477.552 3.88624 477.552C6.03267 477.552 7.77249 475.918 7.77249 473.901C7.77249 471.885 6.03267 470.25 3.88624 470.25" fill="#43B97F"/>
<path fill-rule="evenodd" clip-rule="evenodd" d="M3.88624 496.934C1.73982 496.934 0 498.569 0 500.585C0 502.601 1.73982 504.236 3.88624 504.236C6.03267 504.236 7.77249 502.601 7.77249 500.585C7.77249 498.569 6.03267 496.934 3.88624 496.934" fill="#43B97F"/>
<path fill-rule="evenodd" clip-rule="evenodd" d="M37.6109 0.00390625C35.4644 0.00390625 33.7246 1.63841 33.7246 3.65491C33.7246 5.67091 35.4644 7.30591 37.6109 7.30591C39.7573 7.30591 41.4971 5.67091 41.4971 3.65491C41.4971 1.63841 39.7573 0.00390625 37.6109 0.00390625" fill="#43B97F"/>
<path fill-rule="evenodd" clip-rule="evenodd" d="M37.6109 31.6875C35.4644 31.6875 33.7246 33.322 33.7246 35.3385C33.7246 37.3545 35.4644 38.9895 37.6109 38.9895C39.7573 38.9895 41.4971 37.3545 41.4971 35.3385C41.4971 33.322 39.7573 31.6875 37.6109 31.6875" fill="#43B97F"/>
<path fill-rule="evenodd" clip-rule="evenodd" d="M37.6109 63.3711C35.4644 63.3711 33.7246 65.0056 33.7246 67.0221C33.7246 69.0386 35.4644 70.6731 37.6109 70.6731C39.7573 70.6731 41.4971 69.0386 41.4971 67.0221C41.4971 65.0056 39.7573 63.3711 37.6109 63.3711" fill="#43B97F"/>
<path fill-rule="evenodd" clip-rule="evenodd" d="M37.6109 95.0547C35.4644 95.0547 33.7246 96.6897 33.7246 98.7057C33.7246 100.722 35.4644 102.357 37.6109 102.357C39.7573 102.357 41.4971 100.722 41.4971 98.7057C41.4971 96.6897 39.7573 95.0547 37.6109 95.0547" fill="#43B97F"/>
<path fill-rule="evenodd" clip-rule="evenodd" d="M37.6109 126.738C35.4644 126.738 33.7246 128.373 33.7246 130.389C33.7246 132.405 35.4644 134.04 37.6109 134.04C39.7573 134.04 41.4971 132.405 41.4971 130.389C41.4971 128.373 39.7573 126.738 37.6109 126.738" fill="#43B97F"/>
<path fill-rule="evenodd" clip-rule="evenodd" d="M37.6109 158.418C35.4644 158.418 33.7246 160.053 33.7246 162.069C33.7246 164.085 35.4644 165.72 37.6109 165.72C39.7573 165.72 41.4971 164.085 41.4971 162.069C41.4971 160.053 39.7573 158.418 37.6109 158.418" fill="#43B97F"/>
<path fill-rule="evenodd" clip-rule="evenodd" d="M37.6109 190.102C35.4644 190.102 33.7246 191.737 33.7246 193.753C33.7246 195.769 35.4644 197.404 37.6109 197.404C39.7573 197.404 41.4971 195.769 41.4971 193.753C41.4971 191.737 39.7573 190.102 37.6109 190.102" fill="#43B97F"/>
<path fill-rule="evenodd" clip-rule="evenodd" d="M37.6109 221.785C35.4644 221.785 33.7246 223.42 33.7246 225.436C33.7246 227.453 35.4644 229.087 37.6109 229.087C39.7573 229.087 41.4971 227.453 41.4971 225.436C41.4971 223.42 39.7573 221.785 37.6109 221.785" fill="#43B97F"/>
<path fill-rule="evenodd" clip-rule="evenodd" d="M37.6109 253.469C35.4644 253.469 33.7246 255.104 33.7246 257.12C33.7246 259.136 35.4644 260.771 37.6109 260.771C39.7573 260.771 41.4971 259.136 41.4971 257.12C41.4971 255.104 39.7573 253.469 37.6109 253.469" fill="#43B97F"/>
<path fill-rule="evenodd" clip-rule="evenodd" d="M37.6109 285.152C35.4644 285.152 33.7246 286.787 33.7246 288.804C33.7246 290.82 35.4644 292.454 37.6109 292.454C39.7573 292.454 41.4971 290.82 41.4971 288.804C41.4971 286.787 39.7573 285.152 37.6109 285.152" fill="#43B97F"/>
<path fill-rule="evenodd" clip-rule="evenodd" d="M37.6109 316.836C35.4644 316.836 33.7246 318.47 33.7246 320.487C33.7246 322.503 35.4644 324.138 37.6109 324.138C39.7573 324.138 41.4971 322.503 41.4971 320.487C41.4971 318.47 39.7573 316.836 37.6109 316.836" fill="#43B97F"/>
<path fill-rule="evenodd" clip-rule="evenodd" d="M37.6109 348.52C35.4644 348.52 33.7246 350.154 33.7246 352.171C33.7246 354.187 35.4644 355.822 37.6109 355.822C39.7573 355.822 41.4971 354.187 41.4971 352.171C41.4971 350.154 39.7573 348.52 37.6109 348.52" fill="#43B97F"/>
<path fill-rule="evenodd" clip-rule="evenodd" d="M37.6109 380.203C35.4644 380.203 33.7246 381.838 33.7246 383.854C33.7246 385.871 35.4644 387.505 37.6109 387.505C39.7573 387.505 41.4971 385.871 41.4971 383.854C41.4971 381.838 39.7573 380.203 37.6109 380.203" fill="#43B97F"/>
<path fill-rule="evenodd" clip-rule="evenodd" d="M37.6109 411.887C35.4644 411.887 33.7246 413.522 33.7246 415.538C33.7246 417.554 35.4644 419.189 37.6109 419.189C39.7573 419.189 41.4971 417.554 41.4971 415.538C41.4971 413.522 39.7573 411.887 37.6109 411.887" fill="#43B97F"/>
<path fill-rule="evenodd" clip-rule="evenodd" d="M37.6109 443.566C35.4644 443.566 33.7246 445.201 33.7246 447.217C33.7246 449.234 35.4644 450.868 37.6109 450.868C39.7573 450.868 41.4971 449.234 41.4971 447.217C41.4971 445.201 39.7573 443.566 37.6109 443.566" fill="#43B97F"/>
<path fill-rule="evenodd" clip-rule="evenodd" d="M37.6109 470.25C35.4644 470.25 33.7246 471.885 33.7246 473.901C33.7246 475.918 35.4644 477.552 37.6109 477.552C39.7573 477.552 41.4971 475.918 41.4971 473.901C41.4971 471.885 39.7573 470.25 37.6109 470.25" fill="#43B97F"/>
<path fill-rule="evenodd" clip-rule="evenodd" d="M37.6109 496.934C35.4644 496.934 33.7246 498.569 33.7246 500.585C33.7246 502.601 35.4644 504.236 37.6109 504.236C39.7573 504.236 41.4971 502.601 41.4971 500.585C41.4971 498.569 39.7573 496.934 37.6109 496.934" fill="#43B97F"/>
<path fill-rule="evenodd" clip-rule="evenodd" d="M71.3355 0.00390625C69.189 0.00390625 67.4492 1.63841 67.4492 3.65491C67.4492 5.67091 69.189 7.30591 71.3355 7.30591C73.4819 7.30591 75.2217 5.67091 75.2217 3.65491C75.2217 1.63841 73.4819 0.00390625 71.3355 0.00390625" fill="#43B97F"/>
<path fill-rule="evenodd" clip-rule="evenodd" d="M71.3355 31.6875C69.189 31.6875 67.4492 33.322 67.4492 35.3385C67.4492 37.3545 69.189 38.9895 71.3355 38.9895C73.4819 38.9895 75.2217 37.3545 75.2217 35.3385C75.2217 33.322 73.4819 31.6875 71.3355 31.6875" fill="#43B97F"/>
<path fill-rule="evenodd" clip-rule="evenodd" d="M71.3355 63.3711C69.189 63.3711 67.4492 65.0056 67.4492 67.0221C67.4492 69.0386 69.189 70.6731 71.3355 70.6731C73.4819 70.6731 75.2217 69.0386 75.2217 67.0221C75.2217 65.0056 73.4819 63.3711 71.3355 63.3711" fill="#43B97F"/>
<path fill-rule="evenodd" clip-rule="evenodd" d="M71.3355 95.0547C69.189 95.0547 67.4492 96.6897 67.4492 98.7057C67.4492 100.722 69.189 102.357 71.3355 102.357C73.4819 102.357 75.2217 100.722 75.2217 98.7057C75.2217 96.6897 73.4819 95.0547 71.3355 95.0547" fill="#43B97F"/>
<path fill-rule="evenodd" clip-rule="evenodd" d="M71.3355 126.738C69.189 126.738 67.4492 128.373 67.4492 130.389C67.4492 132.405 69.189 134.04 71.3355 134.04C73.4819 134.04 75.2217 132.405 75.2217 130.389C75.2217 128.373 73.4819 126.738 71.3355 126.738" fill="#43B97F"/>
<path fill-rule="evenodd" clip-rule="evenodd" d="M71.3355 158.418C69.189 158.418 67.4492 160.053 67.4492 162.069C67.4492 164.085 69.189 165.72 71.3355 165.72C73.4819 165.72 75.2217 164.085 75.2217 162.069C75.2217 160.053 73.4819 158.418 71.3355 158.418" fill="#43B97F"/>
<path fill-rule="evenodd" clip-rule="evenodd" d="M71.3355 190.102C69.189 190.102 67.4492 191.737 67.4492 193.753C67.4492 195.769 69.189 197.404 71.3355 197.404C73.4819 197.404 75.2217 195.769 75.2217 193.753C75.2217 191.737 73.4819 190.102 71.3355 190.102" fill="#43B97F"/>
<path fill-rule="evenodd" clip-rule="evenodd" d="M71.3355 221.785C69.189 221.785 67.4492 223.42 67.4492 225.436C67.4492 227.453 69.189 229.087 71.3355 229.087C73.4819 229.087 75.2217 227.453 75.2217 225.436C75.2217 223.42 73.4819 221.785 71.3355 221.785" fill="#43B97F"/>
<path fill-rule="evenodd" clip-rule="evenodd" d="M71.3355 253.469C69.189 253.469 67.4492 255.104 67.4492 257.12C67.4492 259.136 69.189 260.771 71.3355 260.771C73.4819 260.771 75.2217 259.136 75.2217 257.12C75.2217 255.104 73.4819 253.469 71.3355 253.469" fill="#43B97F"/>
<path fill-rule="evenodd" clip-rule="evenodd" d="M71.3355 285.152C69.189 285.152 67.4492 286.787 67.4492 288.804C67.4492 290.82 69.189 292.454 71.3355 292.454C73.4819 292.454 75.2217 290.82 75.2217 288.804C75.2217 286.787 73.4819 285.152 71.3355 285.152" fill="#43B97F"/>
<path fill-rule="evenodd" clip-rule="evenodd" d="M71.3355 316.836C69.189 316.836 67.4492 318.47 67.4492 320.487C67.4492 322.503 69.189 324.138 71.3355 324.138C73.4819 324.138 75.2217 322.503 75.2217 320.487C75.2217 318.47 73.4819 316.836 71.3355 316.836" fill="#43B97F"/>
<path fill-rule="evenodd" clip-rule="evenodd" d="M71.3355 348.52C69.189 348.52 67.4492 350.154 67.4492 352.171C67.4492 354.187 69.189 355.822 71.3355 355.822C73.4819 355.822 75.2217 354.187 75.2217 352.171C75.2217 350.154 73.4819 348.52 71.3355 348.52" fill="#43B97F"/>
<path fill-rule="evenodd" clip-rule="evenodd" d="M71.3355 380.203C69.189 380.203 67.4492 381.838 67.4492 383.854C67.4492 385.871 69.189 387.505 71.3355 387.505C73.4819 387.505 75.2217 385.871 75.2217 383.854C75.2217 381.838 73.4819 380.203 71.3355 380.203" fill="#43B97F"/>
<path fill-rule="evenodd" clip-rule="evenodd" d="M71.3355 411.887C69.189 411.887 67.4492 413.522 67.4492 415.538C67.4492 417.554 69.189 419.189 71.3355 419.189C73.4819 419.189 75.2217 417.554 75.2217 415.538C75.2217 413.522 73.4819 411.887 71.3355 411.887" fill="#43B97F"/>
<path fill-rule="evenodd" clip-rule="evenodd" d="M71.3355 443.566C69.189 443.566 67.4492 445.201 67.4492 447.217C67.4492 449.234 69.189 450.868 71.3355 450.868C73.4819 450.868 75.2217 449.234 75.2217 447.217C75.2217 445.201 73.4819 443.566 71.3355 443.566" fill="#43B97F"/>
<path fill-rule="evenodd" clip-rule="evenodd" d="M71.3355 470.25C69.189 470.25 67.4492 471.885 67.4492 473.901C67.4492 475.918 69.189 477.552 71.3355 477.552C73.4819 477.552 75.2217 475.918 75.2217 473.901C75.2217 471.885 73.4819 470.25 71.3355 470.25" fill="#43B97F"/>
<path fill-rule="evenodd" clip-rule="evenodd" d="M71.3355 496.934C69.189 496.934 67.4492 498.569 67.4492 500.585C67.4492 502.601 69.189 504.236 71.3355 504.236C73.4819 504.236 75.2217 502.601 75.2217 500.585C75.2217 498.569 73.4819 496.934 71.3355 496.934" fill="#43B97F"/>
<path fill-rule="evenodd" clip-rule="evenodd" d="M105.06 0.00390625C102.914 0.00390625 101.174 1.63841 101.174 3.65491C101.174 5.67091 102.914 7.30591 105.06 7.30591C107.207 7.30591 108.946 5.67091 108.946 3.65491C108.946 1.63841 107.207 0.00390625 105.06 0.00390625" fill="#43B97F"/>
<path fill-rule="evenodd" clip-rule="evenodd" d="M105.06 31.6875C102.914 31.6875 101.174 33.322 101.174 35.3385C101.174 37.3545 102.914 38.9895 105.06 38.9895C107.207 38.9895 108.946 37.3545 108.946 35.3385C108.946 33.322 107.207 31.6875 105.06 31.6875" fill="#43B97F"/>
<path fill-rule="evenodd" clip-rule="evenodd" d="M105.06 63.3711C102.914 63.3711 101.174 65.0056 101.174 67.0221C101.174 69.0386 102.914 70.6731 105.06 70.6731C107.207 70.6731 108.946 69.0386 108.946 67.0221C108.946 65.0056 107.207 63.3711 105.06 63.3711" fill="#43B97F"/>
<path fill-rule="evenodd" clip-rule="evenodd" d="M105.06 95.0547C102.914 95.0547 101.174 96.6897 101.174 98.7057C101.174 100.722 102.914 102.357 105.06 102.357C107.207 102.357 108.946 100.722 108.946 98.7057C108.946 96.6897 107.207 95.0547 105.06 95.0547" fill="#43B97F"/>
<path fill-rule="evenodd" clip-rule="evenodd" d="M105.06 126.738C102.914 126.738 101.174 128.373 101.174 130.389C101.174 132.405 102.914 134.04 105.06 134.04C107.207 134.04 108.946 132.405 108.946 130.389C108.946 128.373 107.207 126.738 105.06 126.738" fill="#43B97F"/>
<path fill-rule="evenodd" clip-rule="evenodd" d="M105.06 158.418C102.914 158.418 101.174 160.053 101.174 162.069C101.174 164.085 102.914 165.72 105.06 165.72C107.207 165.72 108.946 164.085 108.946 162.069C108.946 160.053 107.207 158.418 105.06 158.418" fill="#43B97F"/>
<path fill-rule="evenodd" clip-rule="evenodd" d="M105.06 190.102C102.914 190.102 101.174 191.737 101.174 193.753C101.174 195.769 102.914 197.404 105.06 197.404C107.207 197.404 108.946 195.769 108.946 193.753C108.946 191.737 107.207 190.102 105.06 190.102" fill="#43B97F"/>
<path fill-rule="evenodd" clip-rule="evenodd" d="M105.06 221.785C102.914 221.785 101.174 223.42 101.174 225.436C101.174 227.453 102.914 229.087 105.06 229.087C107.207 229.087 108.946 227.453 108.946 225.436C108.946 223.42 107.207 221.785 105.06 221.785" fill="#43B97F"/>
<path fill-rule="evenodd" clip-rule="evenodd" d="M105.06 253.469C102.914 253.469 101.174 255.104 101.174 257.12C101.174 259.136 102.914 260.771 105.06 260.771C107.207 260.771 108.946 259.136 108.946 257.12C108.946 255.104 107.207 253.469 105.06 253.469" fill="#43B97F"/>
<path fill-rule="evenodd" clip-rule="evenodd" d="M105.06 285.152C102.914 285.152 101.174 286.787 101.174 288.804C101.174 290.82 102.914 292.454 105.06 292.454C107.207 292.454 108.946 290.82 108.946 288.804C108.946 286.787 107.207 285.152 105.06 285.152" fill="#43B97F"/>
<path fill-rule="evenodd" clip-rule="evenodd" d="M105.06 316.836C102.914 316.836 101.174 318.47 101.174 320.487C101.174 322.503 102.914 324.138 105.06 324.138C107.207 324.138 108.946 322.503 108.946 320.487C108.946 318.47 107.207 316.836 105.06 316.836" fill="#43B97F"/>
<path fill-rule="evenodd" clip-rule="evenodd" d="M105.06 348.52C102.914 348.52 101.174 350.154 101.174 352.171C101.174 354.187 102.914 355.822 105.06 355.822C107.207 355.822 108.946 354.187 108.946 352.171C108.946 350.154 107.207 348.52 105.06 348.52" fill="#43B97F"/>
<path fill-rule="evenodd" clip-rule="evenodd" d="M105.06 380.203C102.914 380.203 101.174 381.838 101.174 383.854C101.174 385.871 102.914 387.505 105.06 387.505C107.207 387.505 108.946 385.871 108.946 383.854C108.946 381.838 107.207 380.203 105.06 380.203" fill="#43B97F"/>
<path fill-rule="evenodd" clip-rule="evenodd" d="M105.06 411.887C102.914 411.887 101.174 413.522 101.174 415.538C101.174 417.554 102.914 419.189 105.06 419.189C107.207 419.189 108.946 417.554 108.946 415.538C108.946 413.522 107.207 411.887 105.06 411.887" fill="#43B97F"/>
<path fill-rule="evenodd" clip-rule="evenodd" d="M105.06 443.566C102.914 443.566 101.174 445.201 101.174 447.217C101.174 449.234 102.914 450.868 105.06 450.868C107.207 450.868 108.946 449.234 108.946 447.217C108.946 445.201 107.207 443.566 105.06 443.566" fill="#43B97F"/>
<path fill-rule="evenodd" clip-rule="evenodd" d="M105.06 470.25C102.914 470.25 101.174 471.885 101.174 473.901C101.174 475.918 102.914 477.552 105.06 477.552C107.207 477.552 108.946 475.918 108.946 473.901C108.946 471.885 107.207 470.25 105.06 470.25" fill="#43B97F"/>
<path fill-rule="evenodd" clip-rule="evenodd" d="M105.06 496.934C102.914 496.934 101.174 498.569 101.174 500.585C101.174 502.601 102.914 504.236 105.06 504.236C107.207 504.236 108.946 502.601 108.946 500.585C108.946 498.569 107.207 496.934 105.06 496.934" fill="#43B97F"/>
<path fill-rule="evenodd" clip-rule="evenodd" d="M138.785 0.00390625C136.638 0.00390625 134.898 1.63841 134.898 3.65491C134.898 5.67091 136.638 7.30591 138.785 7.30591C140.931 7.30591 142.671 5.67091 142.671 3.65491C142.671 1.63841 140.931 0.00390625 138.785 0.00390625" fill="#43B97F"/>
<path fill-rule="evenodd" clip-rule="evenodd" d="M138.785 31.6875C136.638 31.6875 134.898 33.322 134.898 35.3385C134.898 37.3545 136.638 38.9895 138.785 38.9895C140.931 38.9895 142.671 37.3545 142.671 35.3385C142.671 33.322 140.931 31.6875 138.785 31.6875" fill="#43B97F"/>
<path fill-rule="evenodd" clip-rule="evenodd" d="M138.785 63.3711C136.638 63.3711 134.898 65.0056 134.898 67.0221C134.898 69.0386 136.638 70.6731 138.785 70.6731C140.931 70.6731 142.671 69.0386 142.671 67.0221C142.671 65.0056 140.931 63.3711 138.785 63.3711" fill="#43B97F"/>
<path fill-rule="evenodd" clip-rule="evenodd" d="M138.785 95.0547C136.638 95.0547 134.898 96.6897 134.898 98.7057C134.898 100.722 136.638 102.357 138.785 102.357C140.931 102.357 142.671 100.722 142.671 98.7057C142.671 96.6897 140.931 95.0547 138.785 95.0547" fill="#43B97F"/>
<path fill-rule="evenodd" clip-rule="evenodd" d="M138.785 126.738C136.638 126.738 134.898 128.373 134.898 130.389C134.898 132.405 136.638 134.04 138.785 134.04C140.931 134.04 142.671 132.405 142.671 130.389C142.671 128.373 140.931 126.738 138.785 126.738" fill="#43B97F"/>
<path fill-rule="evenodd" clip-rule="evenodd" d="M138.785 158.418C136.638 158.418 134.898 160.053 134.898 162.069C134.898 164.085 136.638 165.72 138.785 165.72C140.931 165.72 142.671 164.085 142.671 162.069C142.671 160.053 140.931 158.418 138.785 158.418" fill="#43B97F"/>
<path fill-rule="evenodd" clip-rule="evenodd" d="M138.785 190.102C136.638 190.102 134.898 191.737 134.898 193.753C134.898 195.769 136.638 197.404 138.785 197.404C140.931 197.404 142.671 195.769 142.671 193.753C142.671 191.737 140.931 190.102 138.785 190.102" fill="#43B97F"/>
<path fill-rule="evenodd" clip-rule="evenodd" d="M138.785 221.785C136.638 221.785 134.898 223.42 134.898 225.436C134.898 227.453 136.638 229.087 138.785 229.087C140.931 229.087 142.671 227.453 142.671 225.436C142.671 223.42 140.931 221.785 138.785 221.785" fill="#43B97F"/>
<path fill-rule="evenodd" clip-rule="evenodd" d="M138.785 253.469C136.638 253.469 134.898 255.104 134.898 257.12C134.898 259.136 136.638 260.771 138.785 260.771C140.931 260.771 142.671 259.136 142.671 257.12C142.671 255.104 140.931 253.469 138.785 253.469" fill="#43B97F"/>
<path fill-rule="evenodd" clip-rule="evenodd" d="M138.785 285.152C136.638 285.152 134.898 286.787 134.898 288.804C134.898 290.82 136.638 292.454 138.785 292.454C140.931 292.454 142.671 290.82 142.671 288.804C142.671 286.787 140.931 285.152 138.785 285.152" fill="#43B97F"/>
<path fill-rule="evenodd" clip-rule="evenodd" d="M138.785 316.836C136.638 316.836 134.898 318.47 134.898 320.487C134.898 322.503 136.638 324.138 138.785 324.138C140.931 324.138 142.671 322.503 142.671 320.487C142.671 318.47 140.931 316.836 138.785 316.836" fill="#43B97F"/>
<path fill-rule="evenodd" clip-rule="evenodd" d="M138.785 348.52C136.638 348.52 134.898 350.154 134.898 352.171C134.898 354.187 136.638 355.822 138.785 355.822C140.931 355.822 142.671 354.187 142.671 352.171C142.671 350.154 140.931 348.52 138.785 348.52" fill="#43B97F"/>
<path fill-rule="evenodd" clip-rule="evenodd" d="M138.785 380.203C136.638 380.203 134.898 381.838 134.898 383.854C134.898 385.871 136.638 387.505 138.785 387.505C140.931 387.505 142.671 385.871 142.671 383.854C142.671 381.838 140.931 380.203 138.785 380.203" fill="#43B97F"/>
<path fill-rule="evenodd" clip-rule="evenodd" d="M138.785 411.887C136.638 411.887 134.898 413.522 134.898 415.538C134.898 417.554 136.638 419.189 138.785 419.189C140.931 419.189 142.671 417.554 142.671 415.538C142.671 413.522 140.931 411.887 138.785 411.887" fill="#43B97F"/>
<path fill-rule="evenodd" clip-rule="evenodd" d="M138.785 443.566C136.638 443.566 134.898 445.201 134.898 447.217C134.898 449.234 136.638 450.868 138.785 450.868C140.931 450.868 142.671 449.234 142.671 447.217C142.671 445.201 140.931 443.566 138.785 443.566" fill="#43B97F"/>
<path fill-rule="evenodd" clip-rule="evenodd" d="M138.785 470.25C136.638 470.25 134.898 471.885 134.898 473.901C134.898 475.918 136.638 477.552 138.785 477.552C140.931 477.552 142.671 475.918 142.671 473.901C142.671 471.885 140.931 470.25 138.785 470.25" fill="#43B97F"/>
<path fill-rule="evenodd" clip-rule="evenodd" d="M138.785 496.934C136.638 496.934 134.898 498.569 134.898 500.585C134.898 502.601 136.638 504.236 138.785 504.236C140.931 504.236 142.671 502.601 142.671 500.585C142.671 498.569 140.931 496.934 138.785 496.934" fill="#43B97F"/>
<path fill-rule="evenodd" clip-rule="evenodd" d="M172.509 0.00390625C170.363 0.00390625 168.623 1.63841 168.623 3.65491C168.623 5.67091 170.363 7.30591 172.509 7.30591C174.656 7.30591 176.396 5.67091 176.396 3.65491C176.396 1.63841 174.656 0.00390625 172.509 0.00390625" fill="#43B97F"/>
<path fill-rule="evenodd" clip-rule="evenodd" d="M172.509 31.6875C170.363 31.6875 168.623 33.322 168.623 35.3385C168.623 37.3545 170.363 38.9895 172.509 38.9895C174.656 38.9895 176.396 37.3545 176.396 35.3385C176.396 33.322 174.656 31.6875 172.509 31.6875" fill="#43B97F"/>
<path fill-rule="evenodd" clip-rule="evenodd" d="M172.509 63.3711C170.363 63.3711 168.623 65.0056 168.623 67.0221C168.623 69.0386 170.363 70.6731 172.509 70.6731C174.656 70.6731 176.396 69.0386 176.396 67.0221C176.396 65.0056 174.656 63.3711 172.509 63.3711" fill="#43B97F"/>
<path fill-rule="evenodd" clip-rule="evenodd" d="M172.509 95.0547C170.363 95.0547 168.623 96.6897 168.623 98.7057C168.623 100.722 170.363 102.357 172.509 102.357C174.656 102.357 176.396 100.722 176.396 98.7057C176.396 96.6897 174.656 95.0547 172.509 95.0547" fill="#43B97F"/>
<path fill-rule="evenodd" clip-rule="evenodd" d="M172.509 126.738C170.363 126.738 168.623 128.373 168.623 130.389C168.623 132.405 170.363 134.04 172.509 134.04C174.656 134.04 176.396 132.405 176.396 130.389C176.396 128.373 174.656 126.738 172.509 126.738" fill="#43B97F"/>
<path fill-rule="evenodd" clip-rule="evenodd" d="M172.509 158.418C170.363 158.418 168.623 160.053 168.623 162.069C168.623 164.085 170.363 165.72 172.509 165.72C174.656 165.72 176.396 164.085 176.396 162.069C176.396 160.053 174.656 158.418 172.509 158.418" fill="#43B97F"/>
<path fill-rule="evenodd" clip-rule="evenodd" d="M172.509 190.102C170.363 190.102 168.623 191.737 168.623 193.753C168.623 195.769 170.363 197.404 172.509 197.404C174.656 197.404 176.396 195.769 176.396 193.753C176.396 191.737 174.656 190.102 172.509 190.102" fill="#43B97F"/>
<path fill-rule="evenodd" clip-rule="evenodd" d="M172.509 221.785C170.363 221.785 168.623 223.42 168.623 225.436C168.623 227.453 170.363 229.087 172.509 229.087C174.656 229.087 176.396 227.453 176.396 225.436C176.396 223.42 174.656 221.785 172.509 221.785" fill="#43B97F"/>
<path fill-rule="evenodd" clip-rule="evenodd" d="M172.509 253.469C170.363 253.469 168.623 255.104 168.623 257.12C168.623 259.136 170.363 260.771 172.509 260.771C174.656 260.771 176.396 259.136 176.396 257.12C176.396 255.104 174.656 253.469 172.509 253.469" fill="#43B97F"/>
<path fill-rule="evenodd" clip-rule="evenodd" d="M172.509 285.152C170.363 285.152 168.623 286.787 168.623 288.804C168.623 290.82 170.363 292.454 172.509 292.454C174.656 292.454 176.396 290.82 176.396 288.804C176.396 286.787 174.656 285.152 172.509 285.152" fill="#43B97F"/>
<path fill-rule="evenodd" clip-rule="evenodd" d="M172.509 316.836C170.363 316.836 168.623 318.47 168.623 320.487C168.623 322.503 170.363 324.138 172.509 324.138C174.656 324.138 176.396 322.503 176.396 320.487C176.396 318.47 174.656 316.836 172.509 316.836" fill="#43B97F"/>
<path fill-rule="evenodd" clip-rule="evenodd" d="M172.509 348.52C170.363 348.52 168.623 350.154 168.623 352.171C168.623 354.187 170.363 355.822 172.509 355.822C174.656 355.822 176.396 354.187 176.396 352.171C176.396 350.154 174.656 348.52 172.509 348.52" fill="#43B97F"/>
<path fill-rule="evenodd" clip-rule="evenodd" d="M172.509 380.203C170.363 380.203 168.623 381.838 168.623 383.854C168.623 385.871 170.363 387.505 172.509 387.505C174.656 387.505 176.396 385.871 176.396 383.854C176.396 381.838 174.656 380.203 172.509 380.203" fill="#43B97F"/>
<path fill-rule="evenodd" clip-rule="evenodd" d="M172.509 411.887C170.363 411.887 168.623 413.522 168.623 415.538C168.623 417.554 170.363 419.189 172.509 419.189C174.656 419.189 176.396 417.554 176.396 415.538C176.396 413.522 174.656 411.887 172.509 411.887" fill="#43B97F"/>
<path fill-rule="evenodd" clip-rule="evenodd" d="M172.509 443.566C170.363 443.566 168.623 445.201 168.623 447.217C168.623 449.234 170.363 450.868 172.509 450.868C174.656 450.868 176.396 449.234 176.396 447.217C176.396 445.201 174.656 443.566 172.509 443.566" fill="#43B97F"/>
<path fill-rule="evenodd" clip-rule="evenodd" d="M172.509 470.25C170.363 470.25 168.623 471.885 168.623 473.901C168.623 475.918 170.363 477.552 172.509 477.552C174.656 477.552 176.396 475.918 176.396 473.901C176.396 471.885 174.656 470.25 172.509 470.25" fill="#43B97F"/>
<path fill-rule="evenodd" clip-rule="evenodd" d="M172.509 496.934C170.363 496.934 168.623 498.569 168.623 500.585C168.623 502.601 170.363 504.236 172.509 504.236C174.656 504.236 176.396 502.601 176.396 500.585C176.396 498.569 174.656 496.934 172.509 496.934" fill="#43B97F"/>
<path fill-rule="evenodd" clip-rule="evenodd" d="M206.234 0.00390625C204.087 0.00390625 202.348 1.63841 202.348 3.65491C202.348 5.67091 204.087 7.30591 206.234 7.30591C208.38 7.30591 210.12 5.67091 210.12 3.65491C210.12 1.63841 208.38 0.00390625 206.234 0.00390625" fill="#43B97F"/>
<path fill-rule="evenodd" clip-rule="evenodd" d="M206.234 31.6875C204.087 31.6875 202.348 33.322 202.348 35.3385C202.348 37.3545 204.087 38.9895 206.234 38.9895C208.38 38.9895 210.12 37.3545 210.12 35.3385C210.12 33.322 208.38 31.6875 206.234 31.6875" fill="#43B97F"/>
<path fill-rule="evenodd" clip-rule="evenodd" d="M206.234 63.3711C204.087 63.3711 202.348 65.0056 202.348 67.0221C202.348 69.0386 204.087 70.6731 206.234 70.6731C208.38 70.6731 210.12 69.0386 210.12 67.0221C210.12 65.0056 208.38 63.3711 206.234 63.3711" fill="#43B97F"/>
<path fill-rule="evenodd" clip-rule="evenodd" d="M206.234 95.0547C204.087 95.0547 202.348 96.6897 202.348 98.7057C202.348 100.722 204.087 102.357 206.234 102.357C208.38 102.357 210.12 100.722 210.12 98.7057C210.12 96.6897 208.38 95.0547 206.234 95.0547" fill="#43B97F"/>
<path fill-rule="evenodd" clip-rule="evenodd" d="M206.234 126.738C204.087 126.738 202.348 128.373 202.348 130.389C202.348 132.405 204.087 134.04 206.234 134.04C208.38 134.04 210.12 132.405 210.12 130.389C210.12 128.373 208.38 126.738 206.234 126.738" fill="#43B97F"/>
<path fill-rule="evenodd" clip-rule="evenodd" d="M206.234 158.418C204.087 158.418 202.348 160.053 202.348 162.069C202.348 164.085 204.087 165.72 206.234 165.72C208.38 165.72 210.12 164.085 210.12 162.069C210.12 160.053 208.38 158.418 206.234 158.418" fill="#43B97F"/>
<path fill-rule="evenodd" clip-rule="evenodd" d="M206.234 190.102C204.087 190.102 202.348 191.737 202.348 193.753C202.348 195.769 204.087 197.404 206.234 197.404C208.38 197.404 210.12 195.769 210.12 193.753C210.12 191.737 208.38 190.102 206.234 190.102" fill="#43B97F"/>
<path fill-rule="evenodd" clip-rule="evenodd" d="M206.234 221.785C204.087 221.785 202.348 223.42 202.348 225.436C202.348 227.453 204.087 229.087 206.234 229.087C208.38 229.087 210.12 227.453 210.12 225.436C210.12 223.42 208.38 221.785 206.234 221.785" fill="#43B97F"/>
<path fill-rule="evenodd" clip-rule="evenodd" d="M206.234 253.469C204.087 253.469 202.348 255.104 202.348 257.12C202.348 259.136 204.087 260.771 206.234 260.771C208.38 260.771 210.12 259.136 210.12 257.12C210.12 255.104 208.38 253.469 206.234 253.469" fill="#43B97F"/>
<path fill-rule="evenodd" clip-rule="evenodd" d="M206.234 285.152C204.087 285.152 202.348 286.787 202.348 288.804C202.348 290.82 204.087 292.454 206.234 292.454C208.38 292.454 210.12 290.82 210.12 288.804C210.12 286.787 208.38 285.152 206.234 285.152" fill="#43B97F"/>
<path fill-rule="evenodd" clip-rule="evenodd" d="M206.234 316.836C204.087 316.836 202.348 318.47 202.348 320.487C202.348 322.503 204.087 324.138 206.234 324.138C208.38 324.138 210.12 322.503 210.12 320.487C210.12 318.47 208.38 316.836 206.234 316.836" fill="#43B97F"/>
<path fill-rule="evenodd" clip-rule="evenodd" d="M206.234 348.52C204.087 348.52 202.348 350.154 202.348 352.171C202.348 354.187 204.087 355.822 206.234 355.822C208.38 355.822 210.12 354.187 210.12 352.171C210.12 350.154 208.38 348.52 206.234 348.52" fill="#43B97F"/>
<path fill-rule="evenodd" clip-rule="evenodd" d="M206.234 380.203C204.087 380.203 202.348 381.838 202.348 383.854C202.348 385.871 204.087 387.505 206.234 387.505C208.38 387.505 210.12 385.871 210.12 383.854C210.12 381.838 208.38 380.203 206.234 380.203" fill="#43B97F"/>
<path fill-rule="evenodd" clip-rule="evenodd" d="M206.234 411.887C204.087 411.887 202.348 413.522 202.348 415.538C202.348 417.554 204.087 419.189 206.234 419.189C208.38 419.189 210.12 417.554 210.12 415.538C210.12 413.522 208.38 411.887 206.234 411.887" fill="#43B97F"/>
<path fill-rule="evenodd" clip-rule="evenodd" d="M206.234 443.566C204.087 443.566 202.348 445.201 202.348 447.217C202.348 449.234 204.087 450.868 206.234 450.868C208.38 450.868 210.12 449.234 210.12 447.217C210.12 445.201 208.38 443.566 206.234 443.566" fill="#43B97F"/>
<path fill-rule="evenodd" clip-rule="evenodd" d="M206.234 470.25C204.087 470.25 202.348 471.885 202.348 473.901C202.348 475.918 204.087 477.552 206.234 477.552C208.38 477.552 210.12 475.918 210.12 473.901C210.12 471.885 208.38 470.25 206.234 470.25" fill="#43B97F"/>
<path fill-rule="evenodd" clip-rule="evenodd" d="M206.234 496.934C204.087 496.934 202.348 498.569 202.348 500.585C202.348 502.601 204.087 504.236 206.234 504.236C208.38 504.236 210.12 502.601 210.12 500.585C210.12 498.569 208.38 496.934 206.234 496.934" fill="#43B97F"/>
<path fill-rule="evenodd" clip-rule="evenodd" d="M239.959 0.00390625C237.813 0.00390625 236.072 1.63841 236.072 3.65491C236.072 5.67091 237.813 7.30591 239.959 7.30591C242.105 7.30591 243.845 5.67091 243.845 3.65491C243.845 1.63841 242.105 0.00390625 239.959 0.00390625" fill="#43B97F"/>
<path fill-rule="evenodd" clip-rule="evenodd" d="M239.959 31.6875C237.813 31.6875 236.072 33.322 236.072 35.3385C236.072 37.3545 237.813 38.9895 239.959 38.9895C242.105 38.9895 243.845 37.3545 243.845 35.3385C243.845 33.322 242.105 31.6875 239.959 31.6875" fill="#43B97F"/>
<path fill-rule="evenodd" clip-rule="evenodd" d="M239.959 63.3711C237.813 63.3711 236.072 65.0056 236.072 67.0221C236.072 69.0386 237.813 70.6731 239.959 70.6731C242.105 70.6731 243.845 69.0386 243.845 67.0221C243.845 65.0056 242.105 63.3711 239.959 63.3711" fill="#43B97F"/>
<path fill-rule="evenodd" clip-rule="evenodd" d="M239.959 95.0547C237.813 95.0547 236.072 96.6897 236.072 98.7057C236.072 100.722 237.813 102.357 239.959 102.357C242.105 102.357 243.845 100.722 243.845 98.7057C243.845 96.6897 242.105 95.0547 239.959 95.0547" fill="#43B97F"/>
<path fill-rule="evenodd" clip-rule="evenodd" d="M239.959 126.738C237.813 126.738 236.072 128.373 236.072 130.389C236.072 132.405 237.813 134.04 239.959 134.04C242.105 134.04 243.845 132.405 243.845 130.389C243.845 128.373 242.105 126.738 239.959 126.738" fill="#43B97F"/>
<path fill-rule="evenodd" clip-rule="evenodd" d="M239.959 158.418C237.813 158.418 236.072 160.053 236.072 162.069C236.072 164.085 237.813 165.72 239.959 165.72C242.105 165.72 243.845 164.085 243.845 162.069C243.845 160.053 242.105 158.418 239.959 158.418" fill="#43B97F"/>
<path fill-rule="evenodd" clip-rule="evenodd" d="M239.959 190.102C237.813 190.102 236.072 191.737 236.072 193.753C236.072 195.769 237.813 197.404 239.959 197.404C242.105 197.404 243.845 195.769 243.845 193.753C243.845 191.737 242.105 190.102 239.959 190.102" fill="#43B97F"/>
<path fill-rule="evenodd" clip-rule="evenodd" d="M239.959 221.785C237.813 221.785 236.072 223.42 236.072 225.436C236.072 227.453 237.813 229.087 239.959 229.087C242.105 229.087 243.845 227.453 243.845 225.436C243.845 223.42 242.105 221.785 239.959 221.785" fill="#43B97F"/>
<path fill-rule="evenodd" clip-rule="evenodd" d="M239.959 253.469C237.813 253.469 236.072 255.104 236.072 257.12C236.072 259.136 237.813 260.771 239.959 260.771C242.105 260.771 243.845 259.136 243.845 257.12C243.845 255.104 242.105 253.469 239.959 253.469" fill="#43B97F"/>
<path fill-rule="evenodd" clip-rule="evenodd" d="M239.959 285.152C237.813 285.152 236.072 286.787 236.072 288.804C236.072 290.82 237.813 292.454 239.959 292.454C242.105 292.454 243.845 290.82 243.845 288.804C243.845 286.787 242.105 285.152 239.959 285.152" fill="#43B97F"/>
<path fill-rule="evenodd" clip-rule="evenodd" d="M239.959 316.836C237.813 316.836 236.072 318.47 236.072 320.487C236.072 322.503 237.813 324.138 239.959 324.138C242.105 324.138 243.845 322.503 243.845 320.487C243.845 318.47 242.105 316.836 239.959 316.836" fill="#43B97F"/>
<path fill-rule="evenodd" clip-rule="evenodd" d="M239.959 348.52C237.813 348.52 236.072 350.154 236.072 352.171C236.072 354.187 237.813 355.822 239.959 355.822C242.105 355.822 243.845 354.187 243.845 352.171C243.845 350.154 242.105 348.52 239.959 348.52" fill="#43B97F"/>
<path fill-rule="evenodd" clip-rule="evenodd" d="M239.959 380.203C237.813 380.203 236.072 381.838 236.072 383.854C236.072 385.871 237.813 387.505 239.959 387.505C242.105 387.505 243.845 385.871 243.845 383.854C243.845 381.838 242.105 380.203 239.959 380.203" fill="#43B97F"/>
<path fill-rule="evenodd" clip-rule="evenodd" d="M239.959 411.887C237.813 411.887 236.072 413.522 236.072 415.538C236.072 417.554 237.813 419.189 239.959 419.189C242.105 419.189 243.845 417.554 243.845 415.538C243.845 413.522 242.105 411.887 239.959 411.887" fill="#43B97F"/>
<path fill-rule="evenodd" clip-rule="evenodd" d="M239.959 443.566C237.813 443.566 236.072 445.201 236.072 447.217C236.072 449.234 237.813 450.868 239.959 450.868C242.105 450.868 243.845 449.234 243.845 447.217C243.845 445.201 242.105 443.566 239.959 443.566" fill="#43B97F"/>
<path fill-rule="evenodd" clip-rule="evenodd" d="M239.959 470.25C237.813 470.25 236.072 471.885 236.072 473.901C236.072 475.918 237.813 477.552 239.959 477.552C242.105 477.552 243.845 475.918 243.845 473.901C243.845 471.885 242.105 470.25 239.959 470.25" fill="#43B97F"/>
<path fill-rule="evenodd" clip-rule="evenodd" d="M239.959 496.934C237.813 496.934 236.072 498.569 236.072 500.585C236.072 502.601 237.813 504.236 239.959 504.236C242.105 504.236 243.845 502.601 243.845 500.585C243.845 498.569 242.105 496.934 239.959 496.934" fill="#43B97F"/>
<path fill-rule="evenodd" clip-rule="evenodd" d="M273.683 0.00390625C271.537 0.00390625 269.797 1.63841 269.797 3.65491C269.797 5.67091 271.537 7.30591 273.683 7.30591C275.83 7.30591 277.569 5.67091 277.569 3.65491C277.569 1.63841 275.83 0.00390625 273.683 0.00390625" fill="#43B97F"/>
<path fill-rule="evenodd" clip-rule="evenodd" d="M273.683 31.6875C271.537 31.6875 269.797 33.322 269.797 35.3385C269.797 37.3545 271.537 38.9895 273.683 38.9895C275.83 38.9895 277.569 37.3545 277.569 35.3385C277.569 33.322 275.83 31.6875 273.683 31.6875" fill="#43B97F"/>
<path fill-rule="evenodd" clip-rule="evenodd" d="M273.683 63.3711C271.537 63.3711 269.797 65.0056 269.797 67.0221C269.797 69.0386 271.537 70.6731 273.683 70.6731C275.83 70.6731 277.569 69.0386 277.569 67.0221C277.569 65.0056 275.83 63.3711 273.683 63.3711" fill="#43B97F"/>
<path fill-rule="evenodd" clip-rule="evenodd" d="M273.683 95.0547C271.537 95.0547 269.797 96.6897 269.797 98.7057C269.797 100.722 271.537 102.357 273.683 102.357C275.83 102.357 277.569 100.722 277.569 98.7057C277.569 96.6897 275.83 95.0547 273.683 95.0547" fill="#43B97F"/>
<path fill-rule="evenodd" clip-rule="evenodd" d="M273.683 126.738C271.537 126.738 269.797 128.373 269.797 130.389C269.797 132.405 271.537 134.04 273.683 134.04C275.83 134.04 277.569 132.405 277.569 130.389C277.569 128.373 275.83 126.738 273.683 126.738" fill="#43B97F"/>
<path fill-rule="evenodd" clip-rule="evenodd" d="M273.683 158.418C271.537 158.418 269.797 160.053 269.797 162.069C269.797 164.085 271.537 165.72 273.683 165.72C275.83 165.72 277.569 164.085 277.569 162.069C277.569 160.053 275.83 158.418 273.683 158.418" fill="#43B97F"/>
<path fill-rule="evenodd" clip-rule="evenodd" d="M273.683 190.102C271.537 190.102 269.797 191.737 269.797 193.753C269.797 195.769 271.537 197.404 273.683 197.404C275.83 197.404 277.569 195.769 277.569 193.753C277.569 191.737 275.83 190.102 273.683 190.102" fill="#43B97F"/>
<path fill-rule="evenodd" clip-rule="evenodd" d="M273.683 221.785C271.537 221.785 269.797 223.42 269.797 225.436C269.797 227.453 271.537 229.087 273.683 229.087C275.83 229.087 277.569 227.453 277.569 225.436C277.569 223.42 275.83 221.785 273.683 221.785" fill="#43B97F"/>
<path fill-rule="evenodd" clip-rule="evenodd" d="M273.683 253.469C271.537 253.469 269.797 255.104 269.797 257.12C269.797 259.136 271.537 260.771 273.683 260.771C275.83 260.771 277.569 259.136 277.569 257.12C277.569 255.104 275.83 253.469 273.683 253.469" fill="#43B97F"/>
<path fill-rule="evenodd" clip-rule="evenodd" d="M273.683 285.152C271.537 285.152 269.797 286.787 269.797 288.804C269.797 290.82 271.537 292.454 273.683 292.454C275.83 292.454 277.569 290.82 277.569 288.804C277.569 286.787 275.83 285.152 273.683 285.152" fill="#43B97F"/>
<path fill-rule="evenodd" clip-rule="evenodd" d="M273.683 316.836C271.537 316.836 269.797 318.47 269.797 320.487C269.797 322.503 271.537 324.138 273.683 324.138C275.83 324.138 277.569 322.503 277.569 320.487C277.569 318.47 275.83 316.836 273.683 316.836" fill="#43B97F"/>
<path fill-rule="evenodd" clip-rule="evenodd" d="M273.683 348.52C271.537 348.52 269.797 350.154 269.797 352.171C269.797 354.187 271.537 355.822 273.683 355.822C275.83 355.822 277.569 354.187 277.569 352.171C277.569 350.154 275.83 348.52 273.683 348.52" fill="#43B97F"/>
<path fill-rule="evenodd" clip-rule="evenodd" d="M273.683 380.203C271.537 380.203 269.797 381.838 269.797 383.854C269.797 385.871 271.537 387.505 273.683 387.505C275.83 387.505 277.569 385.871 277.569 383.854C277.569 381.838 275.83 380.203 273.683 380.203" fill="#43B97F"/>
<path fill-rule="evenodd" clip-rule="evenodd" d="M273.683 411.887C271.537 411.887 269.797 413.522 269.797 415.538C269.797 417.554 271.537 419.189 273.683 419.189C275.83 419.189 277.569 417.554 277.569 415.538C277.569 413.522 275.83 411.887 273.683 411.887" fill="#43B97F"/>
<path fill-rule="evenodd" clip-rule="evenodd" d="M273.683 443.566C271.537 443.566 269.797 445.201 269.797 447.217C269.797 449.234 271.537 450.868 273.683 450.868C275.83 450.868 277.569 449.234 277.569 447.217C277.569 445.201 275.83 443.566 273.683 443.566" fill="#43B97F"/>
<path fill-rule="evenodd" clip-rule="evenodd" d="M273.683 470.25C271.537 470.25 269.797 471.885 269.797 473.901C269.797 475.918 271.537 477.552 273.683 477.552C275.83 477.552 277.569 475.918 277.569 473.901C277.569 471.885 275.83 470.25 273.683 470.25" fill="#43B97F"/>
<path fill-rule="evenodd" clip-rule="evenodd" d="M273.683 496.934C271.537 496.934 269.797 498.569 269.797 500.585C269.797 502.601 271.537 504.236 273.683 504.236C275.83 504.236 277.569 502.601 277.569 500.585C277.569 498.569 275.83 496.934 273.683 496.934" fill="#43B97F"/>
<path fill-rule="evenodd" clip-rule="evenodd" d="M307.408 0.00390625C305.262 0.00390625 303.521 1.63841 303.521 3.65491C303.521 5.67091 305.262 7.30591 307.408 7.30591C309.554 7.30591 311.294 5.67091 311.294 3.65491C311.294 1.63841 309.554 0.00390625 307.408 0.00390625" fill="#43B97F"/>
<path fill-rule="evenodd" clip-rule="evenodd" d="M307.408 31.6875C305.262 31.6875 303.521 33.322 303.521 35.3385C303.521 37.3545 305.262 38.9895 307.408 38.9895C309.554 38.9895 311.294 37.3545 311.294 35.3385C311.294 33.322 309.554 31.6875 307.408 31.6875" fill="#43B97F"/>
<path fill-rule="evenodd" clip-rule="evenodd" d="M307.408 63.3711C305.262 63.3711 303.521 65.0056 303.521 67.0221C303.521 69.0386 305.262 70.6731 307.408 70.6731C309.554 70.6731 311.294 69.0386 311.294 67.0221C311.294 65.0056 309.554 63.3711 307.408 63.3711" fill="#43B97F"/>
<path fill-rule="evenodd" clip-rule="evenodd" d="M307.408 95.0547C305.262 95.0547 303.521 96.6897 303.521 98.7057C303.521 100.722 305.262 102.357 307.408 102.357C309.554 102.357 311.294 100.722 311.294 98.7057C311.294 96.6897 309.554 95.0547 307.408 95.0547" fill="#43B97F"/>
<path fill-rule="evenodd" clip-rule="evenodd" d="M307.408 126.738C305.262 126.738 303.521 128.373 303.521 130.389C303.521 132.405 305.262 134.04 307.408 134.04C309.554 134.04 311.294 132.405 311.294 130.389C311.294 128.373 309.554 126.738 307.408 126.738" fill="#43B97F"/>
<path fill-rule="evenodd" clip-rule="evenodd" d="M307.408 158.418C305.262 158.418 303.521 160.053 303.521 162.069C303.521 164.085 305.262 165.72 307.408 165.72C309.554 165.72 311.294 164.085 311.294 162.069C311.294 160.053 309.554 158.418 307.408 158.418" fill="#43B97F"/>
<path fill-rule="evenodd" clip-rule="evenodd" d="M307.408 190.102C305.262 190.102 303.521 191.737 303.521 193.753C303.521 195.769 305.262 197.404 307.408 197.404C309.554 197.404 311.294 195.769 311.294 193.753C311.294 191.737 309.554 190.102 307.408 190.102" fill="#43B97F"/>
<path fill-rule="evenodd" clip-rule="evenodd" d="M307.408 221.785C305.262 221.785 303.521 223.42 303.521 225.436C303.521 227.453 305.262 229.087 307.408 229.087C309.554 229.087 311.294 227.453 311.294 225.436C311.294 223.42 309.554 221.785 307.408 221.785" fill="#43B97F"/>
<path fill-rule="evenodd" clip-rule="evenodd" d="M307.408 253.469C305.262 253.469 303.521 255.104 303.521 257.12C303.521 259.136 305.262 260.771 307.408 260.771C309.554 260.771 311.294 259.136 311.294 257.12C311.294 255.104 309.554 253.469 307.408 253.469" fill="#43B97F"/>
<path fill-rule="evenodd" clip-rule="evenodd" d="M307.408 285.152C305.262 285.152 303.521 286.787 303.521 288.804C303.521 290.82 305.262 292.454 307.408 292.454C309.554 292.454 311.294 290.82 311.294 288.804C311.294 286.787 309.554 285.152 307.408 285.152" fill="#43B97F"/>
<path fill-rule="evenodd" clip-rule="evenodd" d="M307.408 316.836C305.262 316.836 303.521 318.47 303.521 320.487C303.521 322.503 305.262 324.138 307.408 324.138C309.554 324.138 311.294 322.503 311.294 320.487C311.294 318.47 309.554 316.836 307.408 316.836" fill="#43B97F"/>
<path fill-rule="evenodd" clip-rule="evenodd" d="M307.408 348.52C305.262 348.52 303.521 350.154 303.521 352.171C303.521 354.187 305.262 355.822 307.408 355.822C309.554 355.822 311.294 354.187 311.294 352.171C311.294 350.154 309.554 348.52 307.408 348.52" fill="#43B97F"/>
<path fill-rule="evenodd" clip-rule="evenodd" d="M307.408 380.203C305.262 380.203 303.521 381.838 303.521 383.854C303.521 385.871 305.262 387.505 307.408 387.505C309.554 387.505 311.294 385.871 311.294 383.854C311.294 381.838 309.554 380.203 307.408 380.203" fill="#43B97F"/>
<path fill-rule="evenodd" clip-rule="evenodd" d="M307.408 411.887C305.262 411.887 303.521 413.522 303.521 415.538C303.521 417.554 305.262 419.189 307.408 419.189C309.554 419.189 311.294 417.554 311.294 415.538C311.294 413.522 309.554 411.887 307.408 411.887" fill="#43B97F"/>
<path fill-rule="evenodd" clip-rule="evenodd" d="M307.408 443.566C305.262 443.566 303.521 445.201 303.521 447.217C303.521 449.234 305.262 450.868 307.408 450.868C309.554 450.868 311.294 449.234 311.294 447.217C311.294 445.201 309.554 443.566 307.408 443.566" fill="#43B97F"/>
<path fill-rule="evenodd" clip-rule="evenodd" d="M307.408 470.25C305.262 470.25 303.521 471.885 303.521 473.901C303.521 475.918 305.262 477.552 307.408 477.552C309.554 477.552 311.294 475.918 311.294 473.901C311.294 471.885 309.554 470.25 307.408 470.25" fill="#43B97F"/>
<path fill-rule="evenodd" clip-rule="evenodd" d="M307.408 496.934C305.262 496.934 303.521 498.569 303.521 500.585C303.521 502.601 305.262 504.236 307.408 504.236C309.554 504.236 311.294 502.601 311.294 500.585C311.294 498.569 309.554 496.934 307.408 496.934" fill="#43B97F"/>
<path fill-rule="evenodd" clip-rule="evenodd" d="M341.133 0.00390625C338.986 0.00390625 337.246 1.63841 337.246 3.65491C337.246 5.67091 338.986 7.30591 341.133 7.30591C343.279 7.30591 345.019 5.67091 345.019 3.65491C345.019 1.63841 343.279 0.00390625 341.133 0.00390625" fill="#43B97F"/>
<path fill-rule="evenodd" clip-rule="evenodd" d="M341.133 31.6875C338.986 31.6875 337.246 33.322 337.246 35.3385C337.246 37.3545 338.986 38.9895 341.133 38.9895C343.279 38.9895 345.019 37.3545 345.019 35.3385C345.019 33.322 343.279 31.6875 341.133 31.6875" fill="#43B97F"/>
<path fill-rule="evenodd" clip-rule="evenodd" d="M341.133 63.3711C338.986 63.3711 337.246 65.0056 337.246 67.0221C337.246 69.0386 338.986 70.6731 341.133 70.6731C343.279 70.6731 345.019 69.0386 345.019 67.0221C345.019 65.0056 343.279 63.3711 341.133 63.3711" fill="#43B97F"/>
<path fill-rule="evenodd" clip-rule="evenodd" d="M341.133 95.0547C338.986 95.0547 337.246 96.6897 337.246 98.7057C337.246 100.722 338.986 102.357 341.133 102.357C343.279 102.357 345.019 100.722 345.019 98.7057C345.019 96.6897 343.279 95.0547 341.133 95.0547" fill="#43B97F"/>
<path fill-rule="evenodd" clip-rule="evenodd" d="M341.133 126.738C338.986 126.738 337.246 128.373 337.246 130.389C337.246 132.405 338.986 134.04 341.133 134.04C343.279 134.04 345.019 132.405 345.019 130.389C345.019 128.373 343.279 126.738 341.133 126.738" fill="#43B97F"/>
<path fill-rule="evenodd" clip-rule="evenodd" d="M341.133 158.418C338.986 158.418 337.246 160.053 337.246 162.069C337.246 164.085 338.986 165.72 341.133 165.72C343.279 165.72 345.019 164.085 345.019 162.069C345.019 160.053 343.279 158.418 341.133 158.418" fill="#43B97F"/>
<path fill-rule="evenodd" clip-rule="evenodd" d="M341.133 190.102C338.986 190.102 337.246 191.737 337.246 193.753C337.246 195.769 338.986 197.404 341.133 197.404C343.279 197.404 345.019 195.769 345.019 193.753C345.019 191.737 343.279 190.102 341.133 190.102" fill="#43B97F"/>
<path fill-rule="evenodd" clip-rule="evenodd" d="M341.133 221.785C338.986 221.785 337.246 223.42 337.246 225.436C337.246 227.453 338.986 229.087 341.133 229.087C343.279 229.087 345.019 227.453 345.019 225.436C345.019 223.42 343.279 221.785 341.133 221.785" fill="#43B97F"/>
<path fill-rule="evenodd" clip-rule="evenodd" d="M341.133 253.469C338.986 253.469 337.246 255.104 337.246 257.12C337.246 259.136 338.986 260.771 341.133 260.771C343.279 260.771 345.019 259.136 345.019 257.12C345.019 255.104 343.279 253.469 341.133 253.469" fill="#43B97F"/>
<path fill-rule="evenodd" clip-rule="evenodd" d="M341.133 285.152C338.986 285.152 337.246 286.787 337.246 288.804C337.246 290.82 338.986 292.454 341.133 292.454C343.279 292.454 345.019 290.82 345.019 288.804C345.019 286.787 343.279 285.152 341.133 285.152" fill="#43B97F"/>
<path fill-rule="evenodd" clip-rule="evenodd" d="M341.133 316.836C338.986 316.836 337.246 318.47 337.246 320.487C337.246 322.503 338.986 324.138 341.133 324.138C343.279 324.138 345.019 322.503 345.019 320.487C345.019 318.47 343.279 316.836 341.133 316.836" fill="#43B97F"/>
<path fill-rule="evenodd" clip-rule="evenodd" d="M341.133 348.52C338.986 348.52 337.246 350.154 337.246 352.171C337.246 354.187 338.986 355.822 341.133 355.822C343.279 355.822 345.019 354.187 345.019 352.171C345.019 350.154 343.279 348.52 341.133 348.52" fill="#43B97F"/>
<path fill-rule="evenodd" clip-rule="evenodd" d="M341.133 380.203C338.986 380.203 337.246 381.838 337.246 383.854C337.246 385.871 338.986 387.505 341.133 387.505C343.279 387.505 345.019 385.871 345.019 383.854C345.019 381.838 343.279 380.203 341.133 380.203" fill="#43B97F"/>
<path fill-rule="evenodd" clip-rule="evenodd" d="M341.133 411.887C338.986 411.887 337.246 413.522 337.246 415.538C337.246 417.554 338.986 419.189 341.133 419.189C343.279 419.189 345.019 417.554 345.019 415.538C345.019 413.522 343.279 411.887 341.133 411.887" fill="#43B97F"/>
<path fill-rule="evenodd" clip-rule="evenodd" d="M341.133 443.566C338.986 443.566 337.246 445.201 337.246 447.217C337.246 449.234 338.986 450.868 341.133 450.868C343.279 450.868 345.019 449.234 345.019 447.217C345.019 445.201 343.279 443.566 341.133 443.566" fill="#43B97F"/>
<path fill-rule="evenodd" clip-rule="evenodd" d="M341.133 470.25C338.986 470.25 337.246 471.885 337.246 473.901C337.246 475.918 338.986 477.552 341.133 477.552C343.279 477.552 345.019 475.918 345.019 473.901C345.019 471.885 343.279 470.25 341.133 470.25" fill="#43B97F"/>
<path fill-rule="evenodd" clip-rule="evenodd" d="M341.133 496.934C338.986 496.934 337.246 498.569 337.246 500.585C337.246 502.601 338.986 504.236 341.133 504.236C343.279 504.236 345.019 502.601 345.019 500.585C345.019 498.569 343.279 496.934 341.133 496.934" fill="#43B97F"/>
<path fill-rule="evenodd" clip-rule="evenodd" d="M374.857 0.00390625C372.711 0.00390625 370.971 1.63841 370.971 3.65491C370.971 5.67091 372.711 7.30591 374.857 7.30591C377.003 7.30591 378.744 5.67091 378.744 3.65491C378.744 1.63841 377.003 0.00390625 374.857 0.00390625" fill="#43B97F"/>
<path fill-rule="evenodd" clip-rule="evenodd" d="M374.857 31.6875C372.711 31.6875 370.971 33.322 370.971 35.3385C370.971 37.3545 372.711 38.9895 374.857 38.9895C377.003 38.9895 378.744 37.3545 378.744 35.3385C378.744 33.322 377.003 31.6875 374.857 31.6875" fill="#43B97F"/>
<path fill-rule="evenodd" clip-rule="evenodd" d="M374.857 63.3711C372.711 63.3711 370.971 65.0056 370.971 67.0221C370.971 69.0386 372.711 70.6731 374.857 70.6731C377.003 70.6731 378.744 69.0386 378.744 67.0221C378.744 65.0056 377.003 63.3711 374.857 63.3711" fill="#43B97F"/>
<path fill-rule="evenodd" clip-rule="evenodd" d="M374.857 95.0547C372.711 95.0547 370.971 96.6897 370.971 98.7057C370.971 100.722 372.711 102.357 374.857 102.357C377.003 102.357 378.744 100.722 378.744 98.7057C378.744 96.6897 377.003 95.0547 374.857 95.0547" fill="#43B97F"/>
<path fill-rule="evenodd" clip-rule="evenodd" d="M374.857 126.738C372.711 126.738 370.971 128.373 370.971 130.389C370.971 132.405 372.711 134.04 374.857 134.04C377.003 134.04 378.744 132.405 378.744 130.389C378.744 128.373 377.003 126.738 374.857 126.738" fill="#43B97F"/>
<path fill-rule="evenodd" clip-rule="evenodd" d="M374.857 158.418C372.711 158.418 370.971 160.053 370.971 162.069C370.971 164.085 372.711 165.72 374.857 165.72C377.003 165.72 378.744 164.085 378.744 162.069C378.744 160.053 377.003 158.418 374.857 158.418" fill="#43B97F"/>
<path fill-rule="evenodd" clip-rule="evenodd" d="M374.857 190.102C372.711 190.102 370.971 191.737 370.971 193.753C370.971 195.769 372.711 197.404 374.857 197.404C377.003 197.404 378.744 195.769 378.744 193.753C378.744 191.737 377.003 190.102 374.857 190.102" fill="#43B97F"/>
<path fill-rule="evenodd" clip-rule="evenodd" d="M374.857 221.785C372.711 221.785 370.971 223.42 370.971 225.436C370.971 227.453 372.711 229.087 374.857 229.087C377.003 229.087 378.744 227.453 378.744 225.436C378.744 223.42 377.003 221.785 374.857 221.785" fill="#43B97F"/>
<path fill-rule="evenodd" clip-rule="evenodd" d="M374.857 253.469C372.711 253.469 370.971 255.104 370.971 257.12C370.971 259.136 372.711 260.771 374.857 260.771C377.003 260.771 378.744 259.136 378.744 257.12C378.744 255.104 377.003 253.469 374.857 253.469" fill="#43B97F"/>
<path fill-rule="evenodd" clip-rule="evenodd" d="M374.857 285.152C372.711 285.152 370.971 286.787 370.971 288.804C370.971 290.82 372.711 292.454 374.857 292.454C377.003 292.454 378.744 290.82 378.744 288.804C378.744 286.787 377.003 285.152 374.857 285.152" fill="#43B97F"/>
<path fill-rule="evenodd" clip-rule="evenodd" d="M374.857 316.836C372.711 316.836 370.971 318.47 370.971 320.487C370.971 322.503 372.711 324.138 374.857 324.138C377.003 324.138 378.744 322.503 378.744 320.487C378.744 318.47 377.003 316.836 374.857 316.836" fill="#43B97F"/>
<path fill-rule="evenodd" clip-rule="evenodd" d="M374.857 348.52C372.711 348.52 370.971 350.154 370.971 352.171C370.971 354.187 372.711 355.822 374.857 355.822C377.003 355.822 378.744 354.187 378.744 352.171C378.744 350.154 377.003 348.52 374.857 348.52" fill="#43B97F"/>
<path fill-rule="evenodd" clip-rule="evenodd" d="M374.857 380.203C372.711 380.203 370.971 381.838 370.971 383.854C370.971 385.871 372.711 387.505 374.857 387.505C377.003 387.505 378.744 385.871 378.744 383.854C378.744 381.838 377.003 380.203 374.857 380.203" fill="#43B97F"/>
<path fill-rule="evenodd" clip-rule="evenodd" d="M374.857 411.887C372.711 411.887 370.971 413.522 370.971 415.538C370.971 417.554 372.711 419.189 374.857 419.189C377.003 419.189 378.744 417.554 378.744 415.538C378.744 413.522 377.003 411.887 374.857 411.887" fill="#43B97F"/>
<path fill-rule="evenodd" clip-rule="evenodd" d="M374.857 443.566C372.711 443.566 370.971 445.201 370.971 447.217C370.971 449.234 372.711 450.868 374.857 450.868C377.003 450.868 378.744 449.234 378.744 447.217C378.744 445.201 377.003 443.566 374.857 443.566" fill="#43B97F"/>
<path fill-rule="evenodd" clip-rule="evenodd" d="M374.857 470.25C372.711 470.25 370.971 471.885 370.971 473.901C370.971 475.918 372.711 477.552 374.857 477.552C377.003 477.552 378.744 475.918 378.744 473.901C378.744 471.885 377.003 470.25 374.857 470.25" fill="#43B97F"/>
<path fill-rule="evenodd" clip-rule="evenodd" d="M374.857 496.934C372.711 496.934 370.971 498.569 370.971 500.585C370.971 502.601 372.711 504.236 374.857 504.236C377.003 504.236 378.744 502.601 378.744 500.585C378.744 498.569 377.003 496.934 374.857 496.934" fill="#43B97F"/>
<path fill-rule="evenodd" clip-rule="evenodd" d="M408.582 0.00390625C406.435 0.00390625 404.695 1.63841 404.695 3.65491C404.695 5.67091 406.435 7.30591 408.582 7.30591C410.727 7.30591 412.468 5.67091 412.468 3.65491C412.468 1.63841 410.727 0.00390625 408.582 0.00390625" fill="#43B97F"/>
<path fill-rule="evenodd" clip-rule="evenodd" d="M408.582 31.6875C406.435 31.6875 404.695 33.322 404.695 35.3385C404.695 37.3545 406.435 38.9895 408.582 38.9895C410.727 38.9895 412.468 37.3545 412.468 35.3385C412.468 33.322 410.727 31.6875 408.582 31.6875" fill="#43B97F"/>
<path fill-rule="evenodd" clip-rule="evenodd" d="M408.582 63.3711C406.435 63.3711 404.695 65.0056 404.695 67.0221C404.695 69.0386 406.435 70.6731 408.582 70.6731C410.727 70.6731 412.468 69.0386 412.468 67.0221C412.468 65.0056 410.727 63.3711 408.582 63.3711" fill="#43B97F"/>
<path fill-rule="evenodd" clip-rule="evenodd" d="M408.582 95.0547C406.435 95.0547 404.695 96.6897 404.695 98.7057C404.695 100.722 406.435 102.357 408.582 102.357C410.727 102.357 412.468 100.722 412.468 98.7057C412.468 96.6897 410.727 95.0547 408.582 95.0547" fill="#43B97F"/>
<path fill-rule="evenodd" clip-rule="evenodd" d="M408.582 126.738C406.435 126.738 404.695 128.373 404.695 130.389C404.695 132.405 406.435 134.04 408.582 134.04C410.727 134.04 412.468 132.405 412.468 130.389C412.468 128.373 410.727 126.738 408.582 126.738" fill="#43B97F"/>
<path fill-rule="evenodd" clip-rule="evenodd" d="M408.582 158.418C406.435 158.418 404.695 160.053 404.695 162.069C404.695 164.085 406.435 165.72 408.582 165.72C410.727 165.72 412.468 164.085 412.468 162.069C412.468 160.053 410.727 158.418 408.582 158.418" fill="#43B97F"/>
<path fill-rule="evenodd" clip-rule="evenodd" d="M408.582 190.102C406.435 190.102 404.695 191.737 404.695 193.753C404.695 195.769 406.435 197.404 408.582 197.404C410.727 197.404 412.468 195.769 412.468 193.753C412.468 191.737 410.727 190.102 408.582 190.102" fill="#43B97F"/>
<path fill-rule="evenodd" clip-rule="evenodd" d="M408.582 221.785C406.435 221.785 404.695 223.42 404.695 225.436C404.695 227.453 406.435 229.087 408.582 229.087C410.727 229.087 412.468 227.453 412.468 225.436C412.468 223.42 410.727 221.785 408.582 221.785" fill="#43B97F"/>
<path fill-rule="evenodd" clip-rule="evenodd" d="M408.582 253.469C406.435 253.469 404.695 255.104 404.695 257.12C404.695 259.136 406.435 260.771 408.582 260.771C410.727 260.771 412.468 259.136 412.468 257.12C412.468 255.104 410.727 253.469 408.582 253.469" fill="#43B97F"/>
<path fill-rule="evenodd" clip-rule="evenodd" d="M408.582 285.152C406.435 285.152 404.695 286.787 404.695 288.804C404.695 290.82 406.435 292.454 408.582 292.454C410.727 292.454 412.468 290.82 412.468 288.804C412.468 286.787 410.727 285.152 408.582 285.152" fill="#43B97F"/>
<path fill-rule="evenodd" clip-rule="evenodd" d="M408.582 316.836C406.435 316.836 404.695 318.47 404.695 320.487C404.695 322.503 406.435 324.138 408.582 324.138C410.727 324.138 412.468 322.503 412.468 320.487C412.468 318.47 410.727 316.836 408.582 316.836" fill="#43B97F"/>
<path fill-rule="evenodd" clip-rule="evenodd" d="M408.582 348.52C406.435 348.52 404.695 350.154 404.695 352.171C404.695 354.187 406.435 355.822 408.582 355.822C410.727 355.822 412.468 354.187 412.468 352.171C412.468 350.154 410.727 348.52 408.582 348.52" fill="#43B97F"/>
<path fill-rule="evenodd" clip-rule="evenodd" d="M408.582 380.203C406.435 380.203 404.695 381.838 404.695 383.854C404.695 385.871 406.435 387.505 408.582 387.505C410.727 387.505 412.468 385.871 412.468 383.854C412.468 381.838 410.727 380.203 408.582 380.203" fill="#43B97F"/>
<path fill-rule="evenodd" clip-rule="evenodd" d="M408.582 411.887C406.435 411.887 404.695 413.522 404.695 415.538C404.695 417.554 406.435 419.189 408.582 419.189C410.727 419.189 412.468 417.554 412.468 415.538C412.468 413.522 410.727 411.887 408.582 411.887" fill="#43B97F"/>
<path fill-rule="evenodd" clip-rule="evenodd" d="M408.582 443.566C406.435 443.566 404.695 445.201 404.695 447.217C404.695 449.234 406.435 450.868 408.582 450.868C410.727 450.868 412.468 449.234 412.468 447.217C412.468 445.201 410.727 443.566 408.582 443.566" fill="#43B97F"/>
<path fill-rule="evenodd" clip-rule="evenodd" d="M408.582 470.25C406.435 470.25 404.695 471.885 404.695 473.901C404.695 475.918 406.435 477.552 408.582 477.552C410.727 477.552 412.468 475.918 412.468 473.901C412.468 471.885 410.727 470.25 408.582 470.25" fill="#43B97F"/>
<path fill-rule="evenodd" clip-rule="evenodd" d="M408.582 496.934C406.435 496.934 404.695 498.569 404.695 500.585C404.695 502.601 406.435 504.236 408.582 504.236C410.727 504.236 412.468 502.601 412.468 500.585C412.468 498.569 410.727 496.934 408.582 496.934" fill="#43B97F"/>
</g>
</svg>
