<svg width="48" height="53" viewBox="0 0 48 53" fill="none" xmlns="http://www.w3.org/2000/svg">
<path d="M7.23295 48V37.8182H13.3778V38.9119H8.46591V42.3523H13.0597V43.446H8.46591V46.9062H13.4574V48H7.23295ZM15.4411 48V40.3636H16.5746V41.5568H16.674C16.8331 41.1491 17.09 40.8326 17.4446 40.6072C17.7992 40.3786 18.2251 40.2642 18.7223 40.2642C19.2261 40.2642 19.6454 40.3786 19.9801 40.6072C20.3182 40.8326 20.5817 41.1491 20.7706 41.5568H20.8501C21.0457 41.1624 21.339 40.8492 21.7301 40.6172C22.1212 40.3819 22.5902 40.2642 23.1371 40.2642C23.8198 40.2642 24.3783 40.478 24.8125 40.9055C25.2467 41.3298 25.4638 41.991 25.4638 42.8892V48H24.2905V42.8892C24.2905 42.3258 24.1364 41.9231 23.8281 41.6811C23.5199 41.4392 23.157 41.3182 22.7393 41.3182C22.2024 41.3182 21.7865 41.4806 21.4915 41.8054C21.1965 42.1269 21.049 42.5346 21.049 43.0284V48H19.8558V42.7699C19.8558 42.3357 19.715 41.986 19.4332 41.7209C19.1515 41.4524 18.7886 41.3182 18.3445 41.3182C18.0395 41.3182 17.7545 41.3994 17.4893 41.5618C17.2275 41.7242 17.0154 41.9496 16.853 42.2379C16.6939 42.523 16.6143 42.8527 16.6143 43.2273V48H15.4411ZM29.8562 48.179C29.3723 48.179 28.9331 48.0878 28.5387 47.9055C28.1443 47.7199 27.8311 47.4531 27.5991 47.1051C27.3671 46.7538 27.2511 46.3295 27.2511 45.8324C27.2511 45.3949 27.3372 45.0402 27.5096 44.7685C27.6819 44.4934 27.9123 44.2779 28.2006 44.1222C28.489 43.9664 28.8072 43.8504 29.1552 43.7741C29.5065 43.6946 29.8595 43.6316 30.2141 43.5852C30.6781 43.5256 31.0543 43.4808 31.3427 43.451C31.6344 43.4179 31.8465 43.3632 31.979 43.2869C32.1149 43.2107 32.1829 43.0781 32.1829 42.8892V42.8494C32.1829 42.3589 32.0487 41.9777 31.7802 41.706C31.515 41.4342 31.1123 41.2983 30.5721 41.2983C30.012 41.2983 29.5728 41.4209 29.2546 41.6662C28.9364 41.9115 28.7127 42.1733 28.5835 42.4517L27.4698 42.054C27.6687 41.59 27.9338 41.2287 28.2653 40.9702C28.6 40.7083 28.9646 40.526 29.359 40.4233C29.7567 40.3172 30.1478 40.2642 30.5323 40.2642C30.7776 40.2642 31.0593 40.294 31.3775 40.3537C31.699 40.41 32.0089 40.5277 32.3072 40.7067C32.6088 40.8857 32.859 41.1558 33.0579 41.517C33.2567 41.8783 33.3562 42.3622 33.3562 42.9688V48H32.1829V46.9659H32.1232C32.0437 47.1316 31.9111 47.3089 31.7255 47.4979C31.5399 47.6868 31.293 47.8475 30.9847 47.9801C30.6765 48.1127 30.3003 48.179 29.8562 48.179ZM30.0352 47.125C30.4992 47.125 30.8903 47.0339 31.2085 46.8516C31.5299 46.6693 31.7719 46.4339 31.9343 46.1456C32.1 45.8572 32.1829 45.554 32.1829 45.2358V44.1619C32.1332 44.2216 32.0238 44.2763 31.8548 44.326C31.689 44.3724 31.4968 44.4138 31.2781 44.4503C31.0626 44.4834 30.8522 44.5133 30.6467 44.5398C30.4445 44.563 30.2804 44.5829 30.1545 44.5994C29.8496 44.6392 29.5645 44.7038 29.2994 44.7933C29.0375 44.8795 28.8254 45.0104 28.663 45.1861C28.5039 45.3584 28.4244 45.5937 28.4244 45.892C28.4244 46.2997 28.5752 46.608 28.8768 46.8168C29.1817 47.0223 29.5678 47.125 30.0352 47.125ZM35.4977 48V40.3636H36.671V48H35.4977ZM36.0943 39.0909C35.8656 39.0909 35.6684 39.013 35.5027 38.8572C35.3403 38.7015 35.2591 38.5142 35.2591 38.2955C35.2591 38.0767 35.3403 37.8894 35.5027 37.7337C35.6684 37.5779 35.8656 37.5 36.0943 37.5C36.323 37.5 36.5185 37.5779 36.6809 37.7337C36.8467 37.8894 36.9295 38.0767 36.9295 38.2955C36.9295 38.5142 36.8467 38.7015 36.6809 38.8572C36.5185 39.013 36.323 39.0909 36.0943 39.0909ZM39.9933 37.8182V48H38.82V37.8182H39.9933Z" fill="#699BF7"/>
<path fill-rule="evenodd" clip-rule="evenodd" d="M36.9251 9.65309C36.5241 10.078 35.0351 11.6065 29.4471 17.2571L36.9871 24.6693H37.0001V9.65309H36.9251ZM18.2962 9C13.9462 9 12.3142 9.00393 11.7432 9.00885L21.3722 18.7029C22.0742 19.4111 23.0072 19.8006 23.9992 19.8006C24.9912 19.8006 25.9252 19.4111 26.6272 18.7029L36.2522 9.0118C34.4682 9.00984 25.0022 9 18.2962 9M18.552 17.3214C12.964 11.6698 11.476 10.1413 11.075 9.71742H11V24.7336H11.013L18.552 17.3214ZM36.3509 25.4872L28.8189 18.0829L27.2719 19.6409C26.3989 20.5212 25.2369 21.0051 23.9999 21.0051H23.9989C22.7629 21.0061 21.6009 20.5212 20.7269 19.6409L19.1809 18.0829L11.6489 25.4872V25.499V25.5H36.3509V25.499V25.4872Z" fill="#699BF7"/>
</svg>
