<svg width="35" height="36" viewBox="0 0 35 36" fill="none" xmlns="http://www.w3.org/2000/svg">
<path fill-rule="evenodd" clip-rule="evenodd" d="M31.1728 17.6101C31.1844 9.72998 24.9394 3.33271 17.2243 3.32136C9.50922 3.31001 3.2455 9.68888 3.23391 17.569C3.22232 25.449 9.46725 31.8463 17.1823 31.8576C24.8975 31.869 31.1612 25.4901 31.1728 17.6101ZM17.229 0.150666C26.6586 0.164537 34.2912 7.98341 34.2771 17.6146C34.2629 27.2458 26.6073 35.0422 17.1777 35.0283C7.74812 35.0145 0.115425 27.1956 0.129593 17.5644C0.14376 7.93318 7.79942 0.136795 17.229 0.150666Z" fill="black"/>
<path fill-rule="evenodd" clip-rule="evenodd" d="M18.3119 10.1287C18.9171 10.7487 18.9156 11.7525 18.3086 12.3707L13.1898 17.5836L18.2932 22.8115C18.8984 23.4315 18.897 24.4353 18.2899 25.0535C17.6828 25.6717 16.7001 25.6703 16.0948 25.0503L9.89551 18.6998C9.29027 18.0798 9.29174 17.076 9.89881 16.4577L16.1168 10.1255C16.7238 9.50726 17.7066 9.5087 18.3119 10.1287Z" fill="black"/>
<path fill-rule="evenodd" clip-rule="evenodd" d="M24.9641 17.6009C24.9628 18.4765 24.2669 19.1852 23.4096 19.184L10.9924 19.1657C10.1351 19.1645 9.44126 18.4537 9.44254 17.5781C9.44383 16.7025 10.1398 15.9938 10.997 15.995L23.4143 16.0133C24.2715 16.0145 24.9654 16.7254 24.9641 17.6009Z" fill="black"/>
</svg>
