<svg width="42" height="53" viewBox="0 0 42 53" fill="none" xmlns="http://www.w3.org/2000/svg">
<path d="M27.997 20C19.466 20.012 12.991 13.46 13 5.003C13 4.45 13.448 4 14 4H16.64C17.135 4 17.556 4.364 17.629 4.854C17.8031 6.02905 18.1449 7.17305 18.644 8.251L18.747 8.473C18.8162 8.62239 18.8311 8.79124 18.7891 8.95043C18.7471 9.10962 18.6509 9.24917 18.517 9.345C17.699 9.929 17.387 11.104 18.024 12.02C18.826 13.1733 19.827 14.1746 20.98 14.977C21.897 15.613 23.072 15.301 23.655 14.484C23.7507 14.3497 23.8904 14.2531 24.0498 14.211C24.2092 14.1688 24.3784 14.1836 24.528 14.253L24.749 14.355C25.827 14.855 26.971 15.197 28.146 15.371C28.636 15.444 29 15.865 29 16.361V19C29 19.1314 28.9741 19.2615 28.9238 19.3829C28.8735 19.5043 28.7997 19.6146 28.7068 19.7075C28.6138 19.8003 28.5034 19.874 28.382 19.9242C28.2606 19.9744 28.1304 20.0001 27.999 20H27.997Z" fill="#699BF7"/>
<path d="M1.23295 50V39.8182H4.6733C5.47206 39.8182 6.125 39.9624 6.6321 40.2507C7.14252 40.5357 7.52036 40.9219 7.76562 41.4091C8.01089 41.8963 8.13352 42.4399 8.13352 43.0398C8.13352 43.6397 8.01089 44.1849 7.76562 44.6754C7.52367 45.166 7.14915 45.5571 6.64205 45.8487C6.13494 46.1371 5.48532 46.2812 4.69318 46.2812H2.22727V45.1875H4.65341C5.20028 45.1875 5.63944 45.093 5.97088 44.9041C6.30232 44.7152 6.54261 44.46 6.69176 44.1385C6.84422 43.8137 6.92045 43.4474 6.92045 43.0398C6.92045 42.6321 6.84422 42.2675 6.69176 41.946C6.54261 41.6245 6.30066 41.3726 5.96591 41.1903C5.63116 41.0047 5.18703 40.9119 4.63352 40.9119H2.46591V50H1.23295ZM11.1339 45.4062V50H9.96058V39.8182H11.1339V43.5568H11.2333C11.4123 43.1624 11.6808 42.8492 12.0387 42.6172C12.4 42.3819 12.8806 42.2642 13.4805 42.2642C14.0008 42.2642 14.4566 42.3686 14.8477 42.5774C15.2388 42.7829 15.542 43.0994 15.7575 43.527C15.9762 43.9512 16.0856 44.4915 16.0856 45.1477V50H14.9123V45.2273C14.9123 44.6207 14.7549 44.1518 14.44 43.8203C14.1284 43.4856 13.6959 43.3182 13.1424 43.3182C12.7579 43.3182 12.4132 43.3994 12.1083 43.5618C11.8067 43.7242 11.5681 43.9612 11.3924 44.2727C11.2201 44.5843 11.1339 44.9621 11.1339 45.4062ZM21.3343 50.1591C20.6449 50.1591 20.0401 49.995 19.5197 49.6669C19.0027 49.3388 18.5983 48.8797 18.3066 48.2898C18.0183 47.6998 17.8741 47.0104 17.8741 46.2216C17.8741 45.4261 18.0183 44.7318 18.3066 44.1385C18.5983 43.5452 19.0027 43.0845 19.5197 42.7564C20.0401 42.4283 20.6449 42.2642 21.3343 42.2642C22.0237 42.2642 22.627 42.4283 23.144 42.7564C23.6644 43.0845 24.0687 43.5452 24.3571 44.1385C24.6487 44.7318 24.7946 45.4261 24.7946 46.2216C24.7946 47.0104 24.6487 47.6998 24.3571 48.2898C24.0687 48.8797 23.6644 49.3388 23.144 49.6669C22.627 49.995 22.0237 50.1591 21.3343 50.1591ZM21.3343 49.1051C21.858 49.1051 22.2889 48.9709 22.627 48.7024C22.965 48.4339 23.2153 48.081 23.3777 47.6435C23.5401 47.206 23.6213 46.732 23.6213 46.2216C23.6213 45.7112 23.5401 45.2356 23.3777 44.7947C23.2153 44.3539 22.965 43.9976 22.627 43.7259C22.2889 43.4541 21.858 43.3182 21.3343 43.3182C20.8107 43.3182 20.3798 43.4541 20.0417 43.7259C19.7037 43.9976 19.4534 44.3539 19.291 44.7947C19.1286 45.2356 19.0474 45.7112 19.0474 46.2216C19.0474 46.732 19.1286 47.206 19.291 47.6435C19.4534 48.081 19.7037 48.4339 20.0417 48.7024C20.3798 48.9709 20.8107 49.1051 21.3343 49.1051ZM27.7589 45.4062V50H26.5856V42.3636H27.7191V43.5568H27.8185C27.9975 43.169 28.2693 42.8575 28.6339 42.6222C28.9985 42.3835 29.4691 42.2642 30.0458 42.2642C30.5629 42.2642 31.0153 42.3703 31.4031 42.5824C31.7908 42.7912 32.0924 43.1094 32.3079 43.5369C32.5233 43.9612 32.631 44.4981 32.631 45.1477V50H31.4577V45.2273C31.4577 44.6274 31.302 44.16 30.9904 43.8253C30.6789 43.4872 30.2513 43.3182 29.7077 43.3182C29.3332 43.3182 28.9985 43.3994 28.7035 43.5618C28.4118 43.7242 28.1815 43.9612 28.0124 44.2727C27.8434 44.5843 27.7589 44.9621 27.7589 45.4062ZM37.9767 50.1591C37.2409 50.1591 36.6062 49.9967 36.0726 49.6719C35.5423 49.3438 35.133 48.8864 34.8446 48.2997C34.5596 47.7098 34.4171 47.0237 34.4171 46.2415C34.4171 45.4593 34.5596 44.7699 34.8446 44.1733C35.133 43.5734 35.534 43.1061 36.0478 42.7713C36.5648 42.4332 37.168 42.2642 37.8574 42.2642C38.2551 42.2642 38.6479 42.3305 39.0357 42.4631C39.4235 42.5956 39.7765 42.8111 40.0946 43.1094C40.4128 43.4044 40.6664 43.7955 40.8553 44.2827C41.0442 44.7699 41.1387 45.3698 41.1387 46.0824V46.5795H35.2523V45.5653H39.9455C39.9455 45.1345 39.8593 44.75 39.687 44.4119C39.5179 44.0739 39.276 43.8071 38.9611 43.6115C38.6496 43.416 38.2817 43.3182 37.8574 43.3182C37.3901 43.3182 36.9857 43.4342 36.6444 43.6662C36.3063 43.8949 36.0461 44.1932 35.8638 44.5611C35.6815 44.929 35.5904 45.3234 35.5904 45.7443V46.4205C35.5904 46.9972 35.6898 47.486 35.8887 47.8871C36.0908 48.2848 36.3709 48.5881 36.7289 48.7969C37.0868 49.0024 37.5028 49.1051 37.9767 49.1051C38.285 49.1051 38.5634 49.062 38.812 48.9759C39.0639 48.8864 39.281 48.7538 39.4632 48.5781C39.6455 48.3991 39.7864 48.1771 39.8858 47.9119L41.0194 48.2301C40.9 48.6146 40.6995 48.9527 40.4178 49.2443C40.1361 49.5327 39.7881 49.758 39.3738 49.9205C38.9595 50.0795 38.4938 50.1591 37.9767 50.1591Z" fill="#699BF7"/>
</svg>
