<svg width="54" height="54" viewBox="0 0 54 54" fill="none" xmlns="http://www.w3.org/2000/svg">
<rect width="54" height="54" rx="27" fill="#43B97F"/>
<path fill-rule="evenodd" clip-rule="evenodd" d="M22.4998 12.75C20.4288 12.75 18.7498 14.4289 18.7498 16.5C18.7498 18.5711 20.4288 20.25 22.4998 20.25C24.5709 20.25 26.2498 18.5711 26.2498 16.5C26.2498 14.4289 24.5709 12.75 22.4998 12.75ZM17.2498 16.5C17.2498 13.6005 19.6003 11.25 22.4998 11.25C25.3993 11.25 27.7498 13.6005 27.7498 16.5C27.7498 19.3995 25.3993 21.75 22.4998 21.75C19.6003 21.75 17.2498 19.3995 17.2498 16.5ZM33.9009 23.1219C33.6273 22.6963 33.0193 22.6582 32.6947 23.0463L25.0037 32.2419C24.8698 32.4021 24.6752 32.4991 24.4667 32.5098C24.2582 32.5204 24.0547 32.4437 23.9051 32.2981L18.7698 27.2968C18.4337 26.9694 17.8828 27.0276 17.6225 27.4181L11.1786 37.084C10.8463 37.5824 11.2036 38.25 11.8026 38.25H42.2523C42.8457 38.25 43.2041 37.5936 42.8832 37.0944L33.9009 23.1219ZM31.5441 22.084C32.518 20.9195 34.3418 21.0339 35.1626 22.3108L44.145 36.2833C45.1076 37.7807 44.0325 39.75 42.2523 39.75H11.8026C10.0055 39.75 8.93367 37.7472 9.9305 36.2519L16.3744 26.586C17.1553 25.4147 18.8079 25.24 19.8164 26.2222L24.3721 30.659L31.5441 22.084Z" fill="#D0EDDF"/>
</svg>
