<svg width="18" height="18" viewBox="0 0 18 18" fill="none" xmlns="http://www.w3.org/2000/svg">
<path d="M9.98545e-05 6.40574C-0.00238072 6.55026 0.0414072 6.69209 0.125658 6.81242C0.209908 6.93274 0.330642 7.02589 0.47185 7.07949L7.6726 9.818L10.5533 16.6639C10.609 16.7963 10.7051 16.9098 10.8293 16.9898C10.9535 17.0697 11.1001 17.1124 11.2501 17.1124H11.2621C11.414 17.1101 11.5616 17.064 11.6853 16.9802C11.8091 16.8965 11.9032 16.7789 11.9551 16.6432L17.9551 0.95796C18.0042 0.830358 18.014 0.69207 17.9832 0.559383C17.9524 0.426696 17.8823 0.305137 17.7813 0.20902C17.6803 0.112903 17.5525 0.046232 17.4129 0.0168587C17.2733 -0.0125147 17.1279 -0.00336695 16.9936 0.0432243L0.4936 5.74696C0.350774 5.79646 0.227123 5.88601 0.139002 6.00377C0.0508818 6.12153 0.00244525 6.26195 9.98545e-05 6.40645V6.40574Z" fill="#3D3E48"/>
</svg>
